<?xml version="1.0" standalone="no"?>
<!DOCTYPE svg PUBLIC "-//W3C//DTD SVG 1.1//EN" "http://www.w3.org/Graphics/SVG/1.1/DTD/svg11.dtd" >
<!--
2013-9-30: Created.
-->
<svg>
<metadata>
Created by iconfont
</metadata>
<defs>

<font id="iconfont" horiz-adv-x="1024" >
  <font-face
    font-family="iconfont"
    font-weight="500"
    font-stretch="normal"
    units-per-em="1024"
    ascent="896"
    descent="-128"
  />
    <missing-glyph />
    
    <glyph glyph-name="x" unicode="x" horiz-adv-x="1001"
d="M281 543q-27 -1 -53 -1h-83q-18 0 -36.5 -6t-32.5 -18.5t-23 -32t-9 -45.5v-76h912v41q0 16 -0.5 30t-0.5 18q0 13 -5 29t-17 29.5t-31.5 22.5t-49.5 9h-133v-97h-438v97zM955 310v-52q0 -23 0.5 -52t0.5 -58t-10.5 -47.5t-26 -30t-33 -16t-31.5 -4.5q-14 -1 -29.5 -0.5
t-29.5 0.5h-32l-45 128h-439l-44 -128h-29h-34q-20 0 -45 1q-25 0 -41 9.5t-25.5 23t-13.5 29.5t-4 30v167h911zM163 247q-12 0 -21 -8.5t-9 -21.5t9 -21.5t21 -8.5q13 0 22 8.5t9 21.5t-9 21.5t-22 8.5zM316 123q-8 -26 -14 -48q-5 -19 -10.5 -37t-7.5 -25t-3 -15t1 -14.5
t9.5 -10.5t21.5 -4h37h67h81h80h64h36q23 0 34 12t2 38q-5 13 -9.5 30.5t-9.5 34.5q-5 19 -11 39h-368zM336 498v228q0 11 2.5 23t10 21.5t20.5 15.5t34 6h188q31 0 51.5 -14.5t20.5 -52.5v-227h-327z" />
    

    
    <glyph glyph-name="renminbi" unicode="&#59089;" d="M758.909818 722.564139l-182.977543-311.293592 144.178718 0 0-68.778366-167.987772 0 0-94.784715 167.987772 0 0-69.651264-167.987772 0 0-138.00823-86.416931 0 0 138.00823L291.548031 178.056202l0 69.651264 174.15826 0 0 94.784715L291.548031 342.492181l0 68.778366 148.60341 0L258.919694 722.564139l97.43351 0c84.671135-154.623398 136.081834-252.658907 154.322399-294.106526l1.775897 0c6.170488 17.036567 23.086655 51.4408 50.718401 103.182598l103.603998 190.923927L758.909818 722.564139z"  horiz-adv-x="1024" />

    
    <glyph glyph-name="jifen" unicode="&#58916;" d="M510.292 357.875c270.136 0 489.127 113.174 489.127 252.944 0 139.769-218.989 252.942-489.127 252.942s-489.126-113.174-489.126-252.943c0-139.77 218.988-252.943 489.126-252.943v0zM510.29 799.387c235.235 0 425.93-84.429 425.93-188.568 0-104.143-190.696-188.57-425.93-188.57-235.233 0-425.93 84.427-425.93 188.57 0 104.138 190.697 188.568 425.93 188.568v0zM999.259 382.586l-3.125 31.571c-1.751 17.691-17.511 30.612-35.201 28.861-17.69-1.752-30.612-17.511-28.859-35.203l0.956-9.668h-0.298c0.167-0.575 0.315-1.154 0.468-1.727l1.999-20.177c0.178-1.801 0.509-3.548 0.963-5.241-3.52-102.796-192.839-185.651-425.873-185.651-233.714 0-423.457 83.339-425.901 186.554 0.336 1.408 0.59 2.855 0.738 4.339l3.124 31.573c1.753 17.689-11.168 33.451-28.858 35.203-17.69 1.75-33.45-11.17-35.202-28.861l-3.124-31.571c-0.248-2.493-0.193-4.945 0.114-7.326-0.004-0.447-0.015-0.895-0.015-1.343 0-139.769 218.987-252.941 489.127-252.941 270.134 0 489.126 113.172 489.126 252.941 0 1.214-0.024 2.421-0.054 3.63 0.097 1.653 0.068 3.335-0.102 5.038v0zM999.259 145.778l-0.045 0.451c-0.214 4.079-0.594 8.138-1.176 12.168h-0.028l-1.876 18.957c-1.751 17.688-17.511 30.611-35.201 28.858-17.69-1.751-30.612-17.508-28.859-35.2l3.126-31.574c0.166-1.699 0.468-3.353 0.883-4.957-5.738-101.928-194.174-183.782-425.794-183.782-232.309 0-421.172 82.342-425.834 184.692 0.302 1.319 0.533 2.666 0.669 4.045l3.124 31.574c1.752 17.69-11.168 33.45-28.858 35.2-17.69 1.753-33.45-11.168-35.201-28.858l-3.125-31.576c-0.246-2.472-0.193-4.909 0.108-7.275 0.798-139.415 219.471-252.177 489.118-252.177 270.136 0 489.127 113.174 489.127 252.943 0 0.654-0.027 1.305-0.035 1.955 0.061 1.504 0.027 3.023-0.126 4.556v0z"  horiz-adv-x="1024" />

    
    <glyph glyph-name="arrow-down-box" unicode="&#58922;" d="M128 682.666667a85.333333 85.333333 0 0 0 85.333333 85.333333h597.333334a85.333333 85.333333 0 0 0 85.333333-85.333333v-597.333334a85.333333 85.333333 0 0 0-85.333333-85.333333H213.333333a85.333333 85.333333 0 0 0-85.333333 85.333333V682.666667m341.333333-42.666667v-362.666667L320 426.666667l-60.586667-60.586667L512 113.493333l252.586667 252.586667L704 426.666667 554.666667 277.333333V640h-85.333334z"  horiz-adv-x="1024" />

    
    <glyph glyph-name="arrow-up-box" unicode="&#58936;" d="M896 85.333333a85.333333 85.333333 0 0 0-85.333333-85.333333H213.333333a85.333333 85.333333 0 0 0-85.333333 85.333333V682.666667a85.333333 85.333333 0 0 0 85.333333 85.333333h597.333334a85.333333 85.333333 0 0 0 85.333333-85.333333v-597.333334m-341.333333 42.666667V490.666667l149.333333-149.333334 60.586667 60.586667L512 654.506667l-252.586667-252.586667L320 341.333333 469.333333 490.666667V128h85.333334z"  horiz-adv-x="1024" />

    
    <glyph glyph-name="exportdata" unicode="&#58880;" d="M512 658.56V256h64V658.56l105.6-104.96 44.8 44.8L544 781.44 361.6 598.4l44.8-44.8L512 658.56zM896 320v-320H192V320H128v-384h832V320h-64z"  horiz-adv-x="1024" />

    
    <glyph glyph-name="fenzu" unicode="&#58882;" d="M743.708444 156.842667A409.770667 409.770667 0 1 0 164.181333 736.369778a409.770667 409.770667 0 0 0 579.527111-579.527111z m-40.220444 40.220444a352.881778 352.881778 0 1 1-499.086222 499.086222 352.881778 352.881778 0 0 1 499.086222-499.086222zM706.275556 159.630222a28.444444 28.444444 0 0 0 40.277333 40.277334l236.828444-236.885334a28.444444 28.444444 0 0 0-40.220444-40.220444l-236.885333 236.828444z"  horiz-adv-x="1024" />

    
    <glyph glyph-name="shangyi" unicode="&#58892;" d="M465.454545-43.473455a46.545455 46.545455 0 1 0-93.090909 0V802.909091a46.545455 46.545455 0 0 0 79.127273 33.233454L651.636364 640a46.545455 46.545455 0 1 0-65.163637-66.466909L465.454545 692.037818v-735.418182z"  horiz-adv-x="1024" />

    
    <glyph glyph-name="bianji" unicode="&#58894;" d="M501.191111 602.737778l-392.533333-392.476445a85.333333 85.333333 0 0 1-24.917334-60.302222v-122.368a85.333333 85.333333 0 0 1 85.333334-85.333333h122.311111a85.333333 85.333333 0 0 1 60.359111 24.974222l392.476444 392.419556-243.086222 243.086222z m323.470222-243.086222L391.964444-72.988444a142.222222 142.222222 0 0 0-100.579555-41.642667h-122.311111a142.222222 142.222222 0 0 0-142.222222 142.222222v122.311111a142.222222 142.222222 0 0 0 41.642666 100.579556L501.134222 683.235556l323.527111-323.527112zM896 506.311111l60.302222 60.359111a85.333333 85.333333 0 0 1 0 120.661334l-127.146666 127.146666a85.333333 85.333333 0 0 1-120.661334 0l-60.302222-60.302222 247.751111-247.864889zM869.319111 854.698667l127.146667-127.146667a142.222222 142.222222 0 0 0 0-201.102222l-100.579556-100.579556-328.248889 328.248889L668.273778 854.698667a142.222222 142.222222 0 0 0 201.102222 0zM597.333333-128a28.444444 28.444444 0 1 0 0 56.888889h455.111111a28.444444 28.444444 0 1 0 0-56.888889h-455.111111z"  horiz-adv-x="1080" />

    
    <glyph glyph-name="xiayi" unicode="&#58895;" d="M572.509091 802.909091a46.545455 46.545455 0 1 0 93.090909 0v-846.196364a46.545455 46.545455 0 0 0-79.127273-33.326545L386.327273 119.528727a46.545455 46.545455 0 0 0 65.163636 66.466909L572.509091 67.490909V802.909091z"  horiz-adv-x="1024" />

    
    <glyph glyph-name="xialajiantou" unicode="&#58896;" d="M231.082667 785.749333a85.333333 85.333333 0 0 1-120.832-120.832l682.666666-682.666666a85.333333 85.333333 0 0 1 120.832 0l682.666667 682.666666a85.333333 85.333333 0 1 1-120.832 120.832L853.333333 163.328 231.082667 785.749333z"  horiz-adv-x="1706" />

    
    <glyph glyph-name="shanchu" unicode="&#58897;" d="M824.888889 725.333333h56.888889v-682.666666a142.222222 142.222222 0 0 0-142.222222-142.222223H284.444444A142.222222 142.222222 0 0 0 142.222222 42.666667V725.333333h56.888889v-682.666666A85.333333 85.333333 0 0 1 284.444444-42.666667h455.111112a85.333333 85.333333 0 0 1 85.333333 85.333334V725.333333zM739.555556 725.333333H284.444444v37.944889C284.444444 805.148444 329.728 839.111111 385.592889 839.111111h252.814222C694.272 839.111111 739.555556 805.148444 739.555556 763.278222V725.333333z m56.888888-56.888889V763.278222C796.444444 840.704 722.716444 896 638.407111 896H385.592889C301.283556 896 227.555556 840.704 227.555556 763.278222V668.444444h568.888888zM86.755556 668.444444a28.444444 28.444444 0 0 0 0 56.888889h850.033777a28.444444 28.444444 0 0 0 0-56.888889H86.755556zM369.777778 472.860444a28.444444 28.444444 0 0 0 56.888889 0v-348.444444a28.444444 28.444444 0 1 0-56.888889 0V472.974222zM597.333333 472.860444a28.444444 28.444444 0 0 0 56.888889 0v-348.444444a28.444444 28.444444 0 1 0-56.888889 0V472.974222z"  horiz-adv-x="1024" />

    
    <glyph glyph-name="Group" unicode="&#58898;" d="M480.512 876.288a460.8 460.8 0 1 0 0-921.6 460.8 460.8 0 0 0 0 921.6z m0-102.4a358.4 358.4 0 1 1 0-716.8 358.4 358.4 0 0 1 0 716.8zM779.4688 60.7232A51.2 51.2 0 1 0 851.968 133.12l155.5456-155.5968a51.2 51.2 0 0 0-72.3968-72.3968l-155.5968 155.5968z"  horiz-adv-x="1024" />

    
    <glyph glyph-name="check1" unicode="&#58899;" d="M466.955215 29.891048L1303.95331 881.371429a48.761905 48.761905 0 0 0 69.583239-68.364191L501.771215-73.776762a48.761905 48.761905 0 0 0-69.485714-0.097524L14.054644 349.96419a48.761905 48.761905 0 1 0 69.436952 68.510477l383.463619-388.632381z"  horiz-adv-x="1414" />

    
    <glyph glyph-name="Icon1" unicode="&#58900;" d="M26.672762 800.377905A48.761905 48.761905 0 1 0 95.232 869.668571l880.249905-869.376A48.761905 48.761905 0 1 0 906.971429-68.998095L26.672762 800.426667zM975.481905 800.377905A48.761905 48.761905 0 1 1 906.971429 869.668571L26.672762 0.341333a48.761905 48.761905 0 1 1 68.559238-69.38819L975.481905 800.426667z"  horiz-adv-x="1024" />

    
    <glyph glyph-name="xiaoxi" unicode="&#58901;" d="M195.616 79.744h-64V413.6C131.616 625.344 301.856 797.12 512 797.12s380.384-171.776 380.384-383.52v-333.856h-64V413.6c0 176.544-141.728 319.52-316.384 319.52s-316.384-142.976-316.384-319.52v-333.856zM92.704 26.496a32 32 0 0 0 0 64h838.592a32 32 0 1 0 0-64H92.704zM491.488 862.592a32 32 0 1 0 64 0V787.52a32 32 0 0 0-64 0V862.592zM613.056 64h64v-13.536c0-94.784-76.288-171.776-170.528-171.776S336-44.32 336 50.464V64h64v-13.536c0-59.584 47.776-107.776 106.56-107.776 58.752 0 106.496 48.192 106.496 107.776V64z"  horiz-adv-x="1024" />

    
    <glyph glyph-name="loading1" unicode="&#58902;" d="M687.060835-96.978c-265.669813-96.713134-559.375488 40.358931-656.053312 306.134672C-65.670301 475.003033 71.260525 768.849947 336.965647 865.6337a51.198994 51.198994 0 0 0 35.027174-96.254108c-212.564098-77.398755-322.129944-312.49041-244.766499-525.160436 77.363445-212.634717 312.313861-322.271183 524.842649-244.907738 212.564098 77.434064 322.059325 312.525719 244.69588 525.195746-60.485432 166.343765-217.507449 269.200778-384.733955 269.236087L511.995586 896c209.033133 0 405.354791-128.527129 480.988064-336.465663 96.677824-265.846361-40.253002-559.728585-305.922815-656.512337z"  horiz-adv-x="1024" />

    
    <glyph glyph-name="zengjia" unicode="&#58903;" d="M72.533333 351.061333a42.666667 42.666667 0 0 0 0 85.333334h853.333334a42.666667 42.666667 0 1 0 0-85.333334h-853.333334zM446.805333 810.666667a42.666667 42.666667 0 1 0 85.333334 0v-853.333334a42.666667 42.666667 0 1 0-85.333334 0V810.666667z"  horiz-adv-x="1024" />

    
    <glyph glyph-name="warning1" unicode="&#58904;" d="M512 827.733333C266.922667 827.733333 68.266667 629.077333 68.266667 384s198.656-443.733333 443.733333-443.733333 443.733333 198.656 443.733333 443.733333S757.077333 827.733333 512 827.733333z m0 68.266667c282.760533 0 512-229.239467 512-512 0-282.760533-229.239467-512-512-512-282.760533 0-512 229.239467-512 512C0 666.760533 229.239467 896 512 896zM512 629.76A40.96 40.96 0 0 0 552.96 588.8v-295.150933a40.96 40.96 0 1 0-81.92 0V588.8A40.96 40.96 0 0 0 512 629.76z m0-491.52a40.96 40.96 0 1 0 0 81.92 40.96 40.96 0 0 0 0-81.92z"  horiz-adv-x="1024" />

    
    <glyph glyph-name="shan" unicode="&#58905;" d="M435.2 128a256 256 0 0 0 0 512h5120a256 256 0 1 0 0-512h-5120z"  horiz-adv-x="6144" />

    
    <glyph glyph-name="bian" unicode="&#58906;" d="M413.013333 179.968a42.666667 42.666667 0 1 0-60.416 60.330667l488.96 488.96a42.666667 42.666667 0 0 0 60.416-60.245334L413.013333 179.968zM883.2 368.384a42.666667 42.666667 0 1 0 85.333333 0v-279.808A173.909333 173.909333 0 0 0 794.453333-85.333333H203.861333A173.909333 173.909333 0 0 0 29.781333 88.576V679.424C29.866667 775.424 107.690667 853.333333 203.776 853.333333h279.722667a42.666667 42.666667 0 1 0 0-85.333333H203.776c-48.981333 0-88.661333-39.68-88.661333-88.576v-590.848c0-48.896 39.68-88.576 88.661333-88.576H794.453333c48.896 0 88.576 39.68 88.576 88.576v279.893333z"  horiz-adv-x="1024" />

    
    <glyph glyph-name="success" unicode="&#58930;" d="M512 896C229.2352 896 0 666.7648 0 384s229.2352-512 512-512 512 229.2352 512 512S794.7648 896 512 896z m0-988.16C249.024-92.16 35.84 121.0112 35.84 384S249.0112 860.16 512 860.16 988.16 646.9888 988.16 384 774.9888-92.16 512-92.16z m286.4 690.048L411.5072 210.9696 203.904 418.56c-8.448 8.448-20.9152 9.3312-27.776 2.4576-6.8864-6.8864-6.016-19.328 2.432-27.7888l217.1392-217.1392c7.3344-7.3216 17.8816-9.0624 25.4464-4.3904 2.3296 1.1776 4.4672 2.7264 6.3232 4.5824L823.744 572.544c8.2176 8.2048 9.2672 20.2112 3.008 27.1872-7.4624 7.4624-19.904 6.592-28.352-1.856z"  horiz-adv-x="1024" />

    
    <glyph glyph-name="copy" unicode="&#58931;" d="M256 576a21.333333 21.333333 0 0 1-21.333333-21.333333v-512a21.333333 21.333333 0 0 1 21.333333-21.333334h341.333333a21.333333 21.333333 0 0 1 21.333334 21.333334V554.666667a21.333333 21.333333 0 0 1-21.333334 21.333333H256z m0 42.666667h341.333333A64 64 0 0 0 661.333333 554.666667v-512a64 64 0 0 0-64-64H256A64 64 0 0 0 192 42.666667V554.666667A64 64 0 0 0 256 618.666667z m128 85.333333v42.666667h384A64 64 0 0 0 832 682.666667v-554.666667h-42.666667V682.666667a21.333333 21.333333 0 0 1-21.333333 21.333333H384z"  horiz-adv-x="1024" />

    
    <glyph glyph-name="cuxiaoleixing" unicode="&#58907;" d="M702.895158 771.287579a107.789474 107.789474 0 0 1-152.468211 0L141.743158 362.549895a107.789474 107.789474 0 0 1-31.582316-73.83579l-5.227789-233.903158a107.789474 107.789474 0 0 1 110.214736-110.160842l233.903158 5.22779a107.789474 107.789474 0 0 1 73.781895 31.582316l408.737684 408.737684a107.789474 107.789474 0 0 1 0 152.46821l-228.621473 228.621474z m38.103579 38.103579l228.621474-228.621474a161.684211 161.684211 0 0 0 0-228.675368l-408.737685-408.737684a161.684211 161.684211 0 0 0-110.699789-47.319579l-233.903158-5.22779a161.684211 161.684211 0 0 0-165.241263 165.241263l5.227789 233.903158a161.684211 161.684211 0 0 0 47.319579 110.69979l408.737684 408.737684a161.684211 161.684211 0 0 0 228.675369 0zM380.658526 82.027789l-5.928421 22.851369c20.372211 1.616842 47.804632 13.958737 63.326316 29.480421 22.420211 22.420211 23.120842 48.720842 6.197895 65.643789-17.623579 17.623579-43.008 6.413474-73.404632-8.892631-28.133053-14.443789-60.146526-27.216842-89.195789 1.832421-23.066947 23.066947-23.066947 61.008842 5.281684 89.357474 22.420211 22.420211 47.319579 29.965474 67.907368 29.965473l2.964211-22.635789c-20.102737-1.347368-40.259368-8.245895-53.948632-21.935158-19.402105-19.402105-18.324211-43.924211-4.581052-57.667369 17.785263-17.785263 38.426947-7.706947 69.52421 7.383579 34.277053 16.437895 66.290526 26.516211 91.621053 1.077895 26.570105-26.462316 26.354526-67.368421-6.790737-100.567579a128.269474 128.269474 0 0 0-72.973474-35.893895z m285.103158 253.574737l-18.000842-18.054737-59.014737 25.6-79.117473-79.117473 25.6-59.014737-18.324211-18.270316-95.070316 225.926737 18.53979 18.485895 225.441684-95.555369z m-97.818947 16.922948l-118.676211 50.984421 50.984421-118.676211 67.69179 67.69179z m139.479579 24.683789l-17.138527-17.138526-160.067368 160.067368 17.138526 17.138527 160.067369-160.067369z m126.652631 126.652632l-85.045894-85.045895-160.067369 160.067368 17.138527 17.138527 144.545684-144.49179 67.907368 67.907369 15.521684-15.521685z"  horiz-adv-x="1024" />

    
    <glyph glyph-name="jiageleixing" unicode="&#58908;" d="M769.613369 526.222222a113.777778 113.777778 0 1 0 0 227.555556 113.777778 113.777778 0 0 0 0-227.555556z m0 56.888889a56.888889 56.888889 0 1 1 0 113.777778 56.888889 56.888889 0 0 1 0-113.777778zM331.910258-35.214222a113.777778 113.777778 0 0 1 160.881778 0l431.502222 431.502222a113.777778 113.777778 0 0 1 33.28 77.937778l5.518222 246.840889a113.777778 113.777778 0 0 1-116.280889 116.280889l-246.897778-5.518223a113.777778 113.777778 0 0 1-77.937777-33.28L90.530702 367.047111a113.777778 113.777778 0 0 1 0-160.881778l241.379556-241.379555z m-40.220445-40.220445L50.310258 165.944889a170.666667 170.666667 0 0 0 0 241.322667L481.755591 838.769778a170.666667 170.666667 0 0 0 116.906667 49.948444l246.897778 5.518222A170.666667 170.666667 0 0 0 1019.92448 719.815111l-5.518222-246.897778a170.666667 170.666667 0 0 0-49.948445-116.849777L532.955591-75.434667a170.666667 170.666667 0 0 0-241.322667 0z"  horiz-adv-x="1025" />

    
    <glyph glyph-name="yanjing" unicode="&#58909;" d="M682.666667 148.48a235.52 235.52 0 1 0 0 471.04 235.52 235.52 0 0 0 0-471.04z m0 61.44a174.08 174.08 0 1 1 0 348.16 174.08 174.08 0 0 1 0-348.16zM682.5984-29.013333c257.6384 0 486.741333 161.723733 583.68 412.535466-96.938667 251.767467-326.109867 413.4912-583.68 413.4912-257.501867 0-486.536533-161.655467-583.543467-412.4672 96.938667-251.904 326.0416-413.559467 583.543467-413.559466zM41.7792 361.403733a63.010133 63.010133 0 0 0 0 45.2608C147.797333 680.823467 399.36 858.453333 682.5984 858.453333c283.306667 0 534.9376-177.629867 641.024-451.7888a62.8736 62.8736 0 0 0 0-45.2608c-106.018133-274.2272-357.717333-451.857067-641.024-451.857066S147.729067 87.176533 41.7792 361.403733z"  horiz-adv-x="1365" />

    
<<<<<<< HEAD
    <glyph glyph-name="qingkong" unicode="&#58910;" d="M778.24 787.8144L569.1392 578.56 429.056 718.592a46.6432 46.6432 0 0 1-65.9968 0L86.272 441.856a46.6432 46.6432 0 0 1 0-65.9968l415.232-415.232a46.6432 46.6432 0 0 1 65.9456 0l276.8384 276.8384a46.6432 46.6432 0 0 1 0 65.9968L704.256 443.392l209.2032 209.2032a95.5904 95.5904 0 1 1-135.168 135.168z m-209.152-136.8064l173.0048 173.0048a146.7904 146.7904 0 0 0 207.5648-207.616L776.704 443.392l103.8336-103.7824a97.8432 97.8432 0 0 0 0-138.3936l-276.7872-276.7872a97.8432 97.8432 0 0 0-138.4448 0L50.0736 339.6096a97.8432 97.8432 0 0 0 0 138.3936l276.7872 276.7872a97.8432 97.8432 0 0 0 138.3936 0l103.8336-103.7824zM117.6576 547.2256l36.1984 36.1984 556.3904-556.3904-36.1984-36.1984zM292.3008 445.0304l36.1984-36.2496-145.6128-145.6128-36.2496 36.1984zM534.4768 202.8032l36.1984-36.1984-145.6128-145.6128-36.1984 36.1984z"  horiz-adv-x="1024" />

    
=======
>>>>>>> d340387a42390ae5d0148e79f6f8e5f6cfaf1430


  </font>
</defs>
</svg>
